<svg width="24" height="24" viewBox="0 0 24 24" fill="none" xmlns="http://www.w3.org/2000/svg">
<path d="M12 2C6.47715 2 2 6.47715 2 12C2 17.5228 6.47715 22 12 22C17.5228 22 22 17.5228 22 12C22 6.47715 17.5228 2 12 2Z" fill="#dda0dd"/>
<path d="M9 10C9 8.34315 10.3431 7 12 7C13.6569 7 15 8.34315 15 10C15 11.6569 13.6569 13 12 13C10.3431 13 9 11.6569 9 10Z" fill="white"/>
<path d="M8 17H16C16.5523 17 17 16.5523 17 16C17 15.4477 16.5523 15 16 15H8C7.44772 15 7 15.4477 7 16C7 16.5523 7.44772 17 8 17Z" fill="white"/>
</svg>
